<svg width="658" height="658" viewBox="0 0 658 658" fill="none" xmlns="http://www.w3.org/2000/svg">
<g opacity="0.8">
<path d="M517.861 120.645C441.938 120.645 380.151 182.432 380.151 258.399C380.151 334.351 441.938 396.152 517.861 396.152C593.842 396.152 655.643 334.351 655.643 258.399C655.643 182.425 593.842 120.645 517.861 120.645ZM573.87 277.712H534.549V317.04C534.549 327.055 526.429 335.161 516.429 335.161C506.429 335.161 498.323 327.055 498.323 317.04V277.712H458.995C448.995 277.712 440.875 269.606 440.875 259.592C440.875 249.592 448.995 241.486 458.995 241.486H498.323V202.179C498.323 192.179 506.429 184.074 516.429 184.074C526.429 184.074 534.549 192.179 534.549 202.179V241.486H573.87C583.87 241.486 591.976 249.592 591.976 259.592C591.976 269.606 583.87 277.712 573.87 277.712Z" fill="#6EC4A7"/>
<path d="M184.428 399.015L152.468 565.945L191.912 597.493L231.312 565.967L198.875 399.015H184.428Z" fill="#6EC4A7"/>
<path d="M317.872 345.132C294.473 368.22 264.899 384.944 231.905 392.681L266.324 569.199C267.625 575.41 265.319 581.809 260.395 585.75L245.564 597.601C286.845 592.67 331.581 581.911 378.43 562.25V431.243C378.43 392.407 358.4 364.243 317.872 345.132Z" fill="black"/>
<path d="M151.282 393.238C117.515 385.711 87.2538 368.791 63.4139 345.262C24.5486 364.315 5.37256 392.443 5.37256 431.243V562.879C24.0569 571.563 72.1415 591.137 139.055 598.281L123.422 585.772C118.491 581.817 116.177 575.446 117.449 569.264L151.282 393.238Z" fill="black"/>
<path d="M190.531 364.004C272.304 364.004 338.805 297.033 338.805 214.703C338.805 132.374 272.296 65.395 190.531 65.395C108.83 65.395 42.3579 132.366 42.3579 214.696C42.3579 297.025 108.83 364.004 190.531 364.004Z" fill="black"/>
</g>
</svg>
