<svg width="40" height="40" viewBox="0 0 40 40" fill="none" xmlns="http://www.w3.org/2000/svg">
<mask id="mask0_81_599" style="mask-type:alpha" maskUnits="userSpaceOnUse" x="0" y="0" width="40" height="40">
<rect width="40" height="40" fill="#D9D9D9"/>
</mask>
<g mask="url(#mask0_81_599)">
<path d="M29.1665 31.6667H30.8332V27.5H34.9998V25.8333H30.8332V21.6667H29.1665V25.8333H24.9998V27.5H29.1665V31.6667ZM29.9998 35C27.6943 35 25.729 34.1875 24.104 32.5625C22.479 30.9375 21.6665 28.9722 21.6665 26.6667C21.6665 24.3611 22.479 22.3958 24.104 20.7708C25.729 19.1458 27.6943 18.3333 29.9998 18.3333C32.3054 18.3333 34.2707 19.1458 35.8957 20.7708C37.5207 22.3958 38.3332 24.3611 38.3332 26.6667C38.3332 28.9722 37.5207 30.9375 35.8957 32.5625C34.2707 34.1875 32.3054 35 29.9998 35ZM6.6665 31.6667V11.6667L19.9998 1.66666L33.3332 11.6667V15.5C32.8054 15.3333 32.2637 15.2083 31.7082 15.125C31.1526 15.0417 30.5832 15 29.9998 15V13.3333L19.9998 5.83333L9.99984 13.3333V28.3333H18.4582C18.5415 28.9167 18.6665 29.4861 18.8332 30.0417C18.9998 30.5972 19.2082 31.1389 19.4582 31.6667H6.6665Z" fill="#1C1B1F"/>
</g>
</svg>
