<svg width="44" height="44" viewBox="0 0 44 44" fill="none" xmlns="http://www.w3.org/2000/svg">
<mask id="mask0_29_683" style="mask-type:alpha" maskUnits="userSpaceOnUse" x="0" y="0" width="44" height="44">
<rect width="44" height="44" fill="#D9D9D9"/>
</mask>
<g mask="url(#mask0_29_683)">
<path d="M20.1667 31.1667H23.8334V23.8334H31.1667V20.1667H23.8334V12.8334H20.1667V20.1667H12.8334V23.8334H20.1667V31.1667ZM22.0001 40.3334C19.464 40.3334 17.0806 39.8521 14.8501 38.8896C12.6195 37.9271 10.6792 36.6209 9.02925 34.9709C7.37925 33.3209 6.073 31.3806 5.1105 29.15C4.148 26.9195 3.66675 24.5361 3.66675 22C3.66675 19.4639 4.148 17.0806 5.1105 14.85C6.073 12.6195 7.37925 10.6792 9.02925 9.02919C10.6792 7.37919 12.6195 6.07294 14.8501 5.11044C17.0806 4.14794 19.464 3.66669 22.0001 3.66669C24.5362 3.66669 26.9195 4.14794 29.1501 5.11044C31.3806 6.07294 33.3209 7.37919 34.9709 9.02919C36.6209 10.6792 37.9272 12.6195 38.8897 14.85C39.8522 17.0806 40.3334 19.4639 40.3334 22C40.3334 24.5361 39.8522 26.9195 38.8897 29.15C37.9272 31.3806 36.6209 33.3209 34.9709 34.9709C33.3209 36.6209 31.3806 37.9271 29.1501 38.8896C26.9195 39.8521 24.5362 40.3334 22.0001 40.3334ZM22.0001 36.6667C26.0945 36.6667 29.5626 35.2459 32.4042 32.4042C35.2459 29.5625 36.6667 26.0945 36.6667 22C36.6667 17.9056 35.2459 14.4375 32.4042 11.5959C29.5626 8.75419 26.0945 7.33335 22.0001 7.33335C17.9056 7.33335 14.4376 8.75419 11.5959 11.5959C8.75425 14.4375 7.33341 17.9056 7.33341 22C7.33341 26.0945 8.75425 29.5625 11.5959 32.4042C14.4376 35.2459 17.9056 36.6667 22.0001 36.6667Z" fill="#1C1B1F"/>
</g>
</svg>
