<svg width="40" height="40" viewBox="0 0 40 40" fill="none" xmlns="http://www.w3.org/2000/svg">
<path d="M4 36.3636C2.9 36.3636 1.95833 36.0076 1.175 35.2955C0.391667 34.5833 0 33.7273 0 32.7273V7.27273C0 6.27273 0.391667 5.41667 1.175 4.70455C1.95833 3.99242 2.9 3.63636 4 3.63636H12.4C12.8333 2.54545 13.5583 1.66667 14.575 1C15.5917 0.333333 16.7333 0 18 0C19.2667 0 20.4083 0.333333 21.425 1C22.4417 1.66667 23.1667 2.54545 23.6 3.63636H32C33.1 3.63636 34.0417 3.99242 34.825 4.70455C35.6083 5.41667 36 6.27273 36 7.27273V19.4545C35.3667 19.1818 34.7167 18.947 34.05 18.75C33.3833 18.553 32.7 18.4091 32 18.3182V7.27273H4V32.7273H16.1C16.2 33.3939 16.3583 34.0303 16.575 34.6364C16.7917 35.2424 17.05 35.8182 17.35 36.3636H4ZM4 32.7273V7.27273V18.3182V18.1818V32.7273ZM8 29.0909H16.15C16.25 28.4545 16.4083 27.8333 16.625 27.2273C16.8417 26.6212 17.0833 26.0303 17.35 25.4545H8V29.0909ZM8 21.8182H20.2C21.2667 20.9091 22.4583 20.1515 23.775 19.5455C25.0917 18.9394 26.5 18.5303 28 18.3182V18.1818H8V21.8182ZM8 14.5455H28V10.9091H8V14.5455ZM18 5.90909C18.4333 5.90909 18.7917 5.7803 19.075 5.52273C19.3583 5.26515 19.5 4.93939 19.5 4.54545C19.5 4.15152 19.3583 3.82576 19.075 3.56818C18.7917 3.31061 18.4333 3.18182 18 3.18182C17.5667 3.18182 17.2083 3.31061 16.925 3.56818C16.6417 3.82576 16.5 4.15152 16.5 4.54545C16.5 4.93939 16.6417 5.26515 16.925 5.52273C17.2083 5.7803 17.5667 5.90909 18 5.90909ZM30 40C27.2333 40 24.875 39.1136 22.925 37.3409C20.975 35.5682 20 33.4242 20 30.9091C20 28.3939 20.975 26.25 22.925 24.4773C24.875 22.7045 27.2333 21.8182 30 21.8182C32.7667 21.8182 35.125 22.7045 37.075 24.4773C39.025 26.25 40 28.3939 40 30.9091C40 33.4242 39.025 35.5682 37.075 37.3409C35.125 39.1136 32.7667 40 30 40ZM29 36.3636H31V31.8182H36V30H31V25.4545H29V30H24V31.8182H29V36.3636Z" fill="#1C1B1F"/>
</svg>
