<svg width="40" height="28" viewBox="0 0 40 28" fill="none" xmlns="http://www.w3.org/2000/svg">
<path d="M20.8333 13.9166C21.6389 13.0277 22.2569 12.0138 22.6875 10.875C23.1181 9.73607 23.3333 8.55551 23.3333 7.33329C23.3333 6.11107 23.1181 4.93051 22.6875 3.79163C22.2569 2.65274 21.6389 1.63885 20.8333 0.749959C22.5 0.972182 23.8889 1.70829 25 2.95829C26.1111 4.20829 26.6667 5.66663 26.6667 7.33329C26.6667 8.99996 26.1111 10.4583 25 11.7083C23.8889 12.9583 22.5 13.6944 20.8333 13.9166ZM30 27.3333V22.3333C30 21.3333 29.7778 20.3819 29.3333 19.4791C28.8889 18.5763 28.3056 17.7777 27.5833 17.0833C29 17.5833 30.3125 18.2291 31.5208 19.0208C32.7292 19.8125 33.3333 20.9166 33.3333 22.3333V27.3333H30ZM33.3333 15.6666V12.3333H30V8.99996H33.3333V5.66663H36.6667V8.99996H40V12.3333H36.6667V15.6666H33.3333ZM13.3333 14C11.5 14 9.93056 13.3472 8.625 12.0416C7.31944 10.7361 6.66667 9.16663 6.66667 7.33329C6.66667 5.49996 7.31944 3.93052 8.625 2.62496C9.93056 1.3194 11.5 0.666626 13.3333 0.666626C15.1667 0.666626 16.7361 1.3194 18.0417 2.62496C19.3472 3.93052 20 5.49996 20 7.33329C20 9.16663 19.3472 10.7361 18.0417 12.0416C16.7361 13.3472 15.1667 14 13.3333 14ZM0 27.3333V22.6666C0 21.7222 0.243056 20.8541 0.729167 20.0625C1.21528 19.2708 1.86111 18.6666 2.66667 18.25C4.38889 17.3888 6.13889 16.743 7.91667 16.3125C9.69444 15.8819 11.5 15.6666 13.3333 15.6666C15.1667 15.6666 16.9722 15.8819 18.75 16.3125C20.5278 16.743 22.2778 17.3888 24 18.25C24.8056 18.6666 25.4514 19.2708 25.9375 20.0625C26.4236 20.8541 26.6667 21.7222 26.6667 22.6666V27.3333H0ZM13.3333 10.6666C14.25 10.6666 15.0347 10.3402 15.6875 9.68746C16.3403 9.03468 16.6667 8.24996 16.6667 7.33329C16.6667 6.41663 16.3403 5.6319 15.6875 4.97913C15.0347 4.32635 14.25 3.99996 13.3333 3.99996C12.4167 3.99996 11.6319 4.32635 10.9792 4.97913C10.3264 5.6319 10 6.41663 10 7.33329C10 8.24996 10.3264 9.03468 10.9792 9.68746C11.6319 10.3402 12.4167 10.6666 13.3333 10.6666ZM3.33333 24H23.3333V22.6666C23.3333 22.3611 23.2569 22.0833 23.1042 21.8333C22.9514 21.5833 22.75 21.3888 22.5 21.25C21 20.5 19.4861 19.9375 17.9583 19.5625C16.4306 19.1875 14.8889 19 13.3333 19C11.7778 19 10.2361 19.1875 8.70833 19.5625C7.18056 19.9375 5.66667 20.5 4.16667 21.25C3.91667 21.3888 3.71528 21.5833 3.5625 21.8333C3.40972 22.0833 3.33333 22.3611 3.33333 22.6666V24Z" fill="#1C1B1F"/>
</svg>
