<svg width="70" height="70" viewBox="0 0 70 70" fill="none" xmlns="http://www.w3.org/2000/svg">
<mask id="mask0_112_2686" style="mask-type:alpha" maskUnits="userSpaceOnUse" x="0" y="0" width="70" height="70">
<rect width="70" height="70" fill="#D9D9D9"/>
</mask>
<g mask="url(#mask0_112_2686)">
<path d="M2.91675 58.3333V50.1666C2.91675 48.5138 3.3421 46.9948 4.19279 45.6093C5.04348 44.2239 6.17369 43.1666 7.58341 42.4375C10.5973 40.9305 13.6598 39.8003 16.7709 39.0468C19.882 38.2934 23.0417 37.9166 26.2501 37.9166C29.4584 37.9166 32.6181 38.2934 35.7292 39.0468C38.8404 39.8003 41.9029 40.9305 44.9167 42.4375C46.3265 43.1666 47.4567 44.2239 48.3074 45.6093C49.1581 46.9948 49.5834 48.5138 49.5834 50.1666V58.3333H2.91675ZM55.4167 58.3333V49.5833C55.4167 47.4444 54.8213 45.3906 53.6303 43.4218C52.4393 41.4531 50.7501 39.7639 48.5626 38.3541C51.0417 38.6458 53.3751 39.1441 55.5626 39.8489C57.7501 40.5538 59.7917 41.4166 61.6876 42.4375C63.4376 43.4097 64.7744 44.4913 65.698 45.6823C66.6216 46.8732 67.0834 48.1736 67.0834 49.5833V58.3333H55.4167ZM26.2501 35C23.0417 35 20.2952 33.8576 18.0105 31.5729C15.7258 29.2882 14.5834 26.5416 14.5834 23.3333C14.5834 20.125 15.7258 17.3784 18.0105 15.0937C20.2952 12.809 23.0417 11.6666 26.2501 11.6666C29.4584 11.6666 32.2049 12.809 34.4897 15.0937C36.7744 17.3784 37.9167 20.125 37.9167 23.3333C37.9167 26.5416 36.7744 29.2882 34.4897 31.5729C32.2049 33.8576 29.4584 35 26.2501 35ZM55.4167 23.3333C55.4167 26.5416 54.2744 29.2882 51.9897 31.5729C49.7049 33.8576 46.9584 35 43.7501 35C43.2154 35 42.5348 34.9392 41.7084 34.8177C40.882 34.6961 40.2015 34.5625 39.6667 34.4166C40.9792 32.8611 41.9879 31.1354 42.6928 29.2395C43.3976 27.3437 43.7501 25.375 43.7501 23.3333C43.7501 21.2916 43.3976 19.3229 42.6928 17.427C41.9879 15.5312 40.9792 13.8055 39.6667 12.25C40.3473 12.0069 41.0279 11.8489 41.7084 11.776C42.389 11.7031 43.0695 11.6666 43.7501 11.6666C46.9584 11.6666 49.7049 12.809 51.9897 15.0937C54.2744 17.3784 55.4167 20.125 55.4167 23.3333ZM8.75008 52.5H43.7501V50.1666C43.7501 49.6319 43.6164 49.1458 43.349 48.7083C43.0817 48.2708 42.7292 47.9305 42.2917 47.6875C39.6667 46.375 37.0174 45.3906 34.3438 44.7343C31.6702 44.0781 28.9723 43.75 26.2501 43.75C23.5279 43.75 20.8299 44.0781 18.1563 44.7343C15.4827 45.3906 12.8334 46.375 10.2084 47.6875C9.77091 47.9305 9.41848 48.2708 9.15112 48.7083C8.88376 49.1458 8.75008 49.6319 8.75008 50.1666V52.5ZM26.2501 29.1666C27.8542 29.1666 29.2275 28.5954 30.3699 27.4531C31.5122 26.3107 32.0834 24.9375 32.0834 23.3333C32.0834 21.7291 31.5122 20.3559 30.3699 19.2135C29.2275 18.0711 27.8542 17.5 26.2501 17.5C24.6459 17.5 23.2726 18.0711 22.1303 19.2135C20.9879 20.3559 20.4167 21.7291 20.4167 23.3333C20.4167 24.9375 20.9879 26.3107 22.1303 27.4531C23.2726 28.5954 24.6459 29.1666 26.2501 29.1666Z" fill="#1C1B1F"/>
</g>
</svg>
