<svg width="813" height="811" viewBox="0 0 813 811" fill="none" xmlns="http://www.w3.org/2000/svg">
<path d="M101.625 709.625V236.542H237.125V101.375H575.875V371.708H711.375V709.625H440.375V574.458H372.625V709.625H101.625ZM169.375 642.042H237.125V574.458H169.375V642.042ZM169.375 506.875H237.125V439.292H169.375V506.875ZM169.375 371.708H237.125V304.125H169.375V371.708ZM304.875 506.875H372.625V439.292H304.875V506.875ZM304.875 371.708H372.625V304.125H304.875V371.708ZM304.875 236.542H372.625V168.958H304.875V236.542ZM440.375 506.875H508.125V439.292H440.375V506.875ZM440.375 371.708H508.125V304.125H440.375V371.708ZM440.375 236.542H508.125V168.958H440.375V236.542ZM575.875 642.042H643.625V574.458H575.875V642.042ZM575.875 506.875H643.625V439.292H575.875V506.875Z" fill="black"/>
</svg>
