<svg width="360" height="460" viewBox="0 0 360 460" fill="none" xmlns="http://www.w3.org/2000/svg">
<path d="M315 207.948H45C33.076 207.983 21.6503 212.735 13.2188 221.167C4.78717 229.598 0.0349029 241.024 0 252.948V414.948C0.0349029 426.872 4.78717 438.297 13.2188 446.729C21.6503 455.161 33.076 459.913 45 459.948H315C326.924 459.913 338.35 455.161 346.781 446.729C355.213 438.297 359.965 426.872 360 414.948V252.948C359.965 241.024 355.213 229.598 346.781 221.167C338.35 212.735 326.924 207.983 315 207.948ZM108.123 343.379C109.251 344.028 110.241 344.892 111.035 345.923C111.829 346.954 112.411 348.132 112.75 349.389C113.088 350.645 113.175 351.956 113.006 353.247C112.836 354.537 112.414 355.781 111.764 356.908C111.113 358.035 110.246 359.023 109.213 359.814C108.18 360.606 107.001 361.186 105.744 361.521C104.486 361.856 103.175 361.94 101.885 361.768C100.595 361.596 99.3521 361.171 98.2266 360.518L81.8966 351.089V369.949C81.8966 372.573 80.8539 375.091 78.998 376.947C77.142 378.803 74.6248 379.845 72.0001 379.845C69.3754 379.845 66.8582 378.803 65.0022 376.947C63.1463 375.091 62.1036 372.573 62.1036 369.949V351.089L45.7736 360.518C43.5013 361.823 40.8039 362.174 38.2734 361.493C35.7429 360.812 33.5858 359.155 32.2754 356.886C30.9649 354.616 30.6082 351.92 31.2835 349.388C31.9587 346.856 33.6108 344.695 35.8772 343.379L52.2116 333.949L35.8772 324.518C33.6108 323.203 31.9587 321.042 31.2835 318.51C30.6082 315.978 30.9649 313.281 32.2754 311.012C33.5858 308.742 35.7429 307.085 38.2734 306.404C40.8039 305.723 43.5013 306.074 45.7736 307.379L62.1036 316.808V297.949C62.1036 295.324 63.1463 292.807 65.0022 290.951C66.8582 289.095 69.3754 288.052 72.0001 288.052C74.6248 288.052 77.142 289.095 78.998 290.951C80.8539 292.807 81.8966 295.324 81.8966 297.949V316.808L98.2266 307.379C100.499 306.074 103.196 305.723 105.727 306.404C108.257 307.085 110.414 308.742 111.725 311.012C113.035 313.281 113.392 315.978 112.717 318.51C112.041 321.042 110.389 323.203 108.123 324.518L91.7886 333.949L108.123 343.379ZM216.123 343.379C217.251 344.028 218.241 344.892 219.035 345.923C219.829 346.954 220.411 348.132 220.75 349.389C221.088 350.645 221.175 351.956 221.006 353.247C220.836 354.537 220.414 355.781 219.764 356.908C219.113 358.035 218.246 359.023 217.213 359.814C216.18 360.606 215.001 361.186 213.744 361.521C212.486 361.856 211.175 361.94 209.885 361.768C208.595 361.596 207.352 361.171 206.227 360.518L189.897 351.089V369.949C189.897 372.573 188.854 375.091 186.998 376.947C185.142 378.803 182.625 379.845 180 379.845C177.375 379.845 174.858 378.803 173.002 376.947C171.146 375.091 170.104 372.573 170.104 369.949V351.089L153.774 360.518C151.501 361.823 148.804 362.174 146.273 361.493C143.743 360.812 141.586 359.155 140.275 356.886C138.965 354.616 138.608 351.92 139.283 349.388C139.959 346.856 141.611 344.695 143.877 343.379L160.212 333.949L143.877 324.518C141.611 323.203 139.959 321.042 139.283 318.51C138.608 315.978 138.965 313.281 140.275 311.012C141.586 308.742 143.743 307.085 146.273 306.404C148.804 305.723 151.501 306.074 153.774 307.379L170.104 316.808V297.949C170.104 295.324 171.146 292.807 173.002 290.951C174.858 289.095 177.375 288.052 180 288.052C182.625 288.052 185.142 289.095 186.998 290.951C188.854 292.807 189.897 295.324 189.897 297.949V316.808L206.227 307.379C208.499 306.074 211.196 305.723 213.727 306.404C216.257 307.085 218.414 308.742 219.725 311.012C221.035 313.281 221.392 315.978 220.717 318.51C220.041 321.042 218.389 323.203 216.123 324.518L199.789 333.949L216.123 343.379ZM324.123 343.379C325.251 344.028 326.241 344.892 327.035 345.923C327.829 346.954 328.411 348.132 328.75 349.389C329.088 350.645 329.175 351.956 329.006 353.247C328.836 354.537 328.414 355.781 327.764 356.908C327.113 358.035 326.246 359.023 325.213 359.814C324.18 360.606 323.001 361.186 321.744 361.521C320.486 361.856 319.175 361.94 317.885 361.768C316.595 361.596 315.352 361.171 314.227 360.518L297.897 351.089V369.949C297.897 372.573 296.854 375.091 294.998 376.947C293.142 378.803 290.625 379.845 288 379.845C285.375 379.845 282.858 378.803 281.002 376.947C279.146 375.091 278.104 372.573 278.104 369.949V351.089L261.774 360.518C259.501 361.823 256.804 362.174 254.273 361.493C251.743 360.812 249.586 359.155 248.275 356.886C246.965 354.616 246.608 351.92 247.283 349.388C247.959 346.856 249.611 344.695 251.877 343.379L268.212 333.949L251.877 324.518C249.611 323.203 247.959 321.042 247.283 318.51C246.608 315.978 246.965 313.281 248.275 311.012C249.586 308.742 251.743 307.085 254.273 306.404C256.804 305.723 259.501 306.074 261.774 307.379L278.104 316.808V297.949C278.104 295.324 279.146 292.807 281.002 290.951C282.858 289.095 285.375 288.052 288 288.052C290.625 288.052 293.142 289.095 294.998 290.951C296.854 292.807 297.897 295.324 297.897 297.949V316.808L314.227 307.379C316.499 306.074 319.196 305.723 321.727 306.404C324.257 307.085 326.414 308.742 327.725 311.012C329.035 313.281 329.392 315.978 328.717 318.51C328.042 321.042 326.389 323.203 324.123 324.518L307.789 333.949L324.123 343.379Z" fill="black"/>
<path d="M96.6346 117.949C96.6346 91.93 102.102 74.8979 120.5 56.4999C138.898 38.102 153.981 34.5833 180 34.5833C206.019 34.5833 223.051 38.102 241.449 56.4999C259.847 74.8979 263.365 91.93 263.365 117.949V188.147H297.897V117.949C297.897 86.6806 285.475 56.6932 263.365 34.5833C241.256 12.4734 211.268 0.0521851 180 0.0521851C148.732 0.0521851 118.744 12.4734 96.6346 34.5833C74.5247 56.6932 62.1035 86.6806 62.1035 117.949V188.147H96.6346V117.949Z" fill="black"/>
</svg>
