<svg width="70" height="70" viewBox="0 0 70 70" fill="none" xmlns="http://www.w3.org/2000/svg">
<mask id="mask0_182_431" style="mask-type:alpha" maskUnits="userSpaceOnUse" x="0" y="0" width="70" height="70">
<rect width="70" height="70" fill="#D9D9D9"/>
</mask>
<g mask="url(#mask0_182_431)">
<path d="M23.3337 35V29.1667H46.667V35H23.3337ZM23.3337 23.3333V17.5H46.667V23.3333H23.3337ZM17.5003 40.8333H39.3753C40.785 40.8333 42.0975 41.1371 43.3128 41.7448C44.5281 42.3524 45.5489 43.2153 46.3753 44.3333L52.5003 52.3542V11.6667H17.5003V40.8333ZM17.5003 58.3333H49.7295L41.7816 47.9062C41.4899 47.5174 41.1375 47.2135 40.7243 46.9948C40.3111 46.776 39.8614 46.6667 39.3753 46.6667H17.5003V58.3333ZM52.5003 64.1667H17.5003C15.8962 64.1667 14.5229 63.5955 13.3805 62.4531C12.2382 61.3108 11.667 59.9375 11.667 58.3333V11.6667C11.667 10.0625 12.2382 8.68923 13.3805 7.54687C14.5229 6.40451 15.8962 5.83333 17.5003 5.83333H52.5003C54.1045 5.83333 55.4778 6.40451 56.6201 7.54687C57.7625 8.68923 58.3337 10.0625 58.3337 11.6667V58.3333C58.3337 59.9375 57.7625 61.3108 56.6201 62.4531C55.4778 63.5955 54.1045 64.1667 52.5003 64.1667Z" fill="#1C1B1F"/>
</g>
</svg>
