<svg width="76" height="76" viewBox="0 0 76 76" fill="none" xmlns="http://www.w3.org/2000/svg">
<mask id="mask0_112_3093" style="mask-type:alpha" maskUnits="userSpaceOnUse" x="0" y="0" width="70" height="70">
<rect width="70" height="70" fill="#D9D9D9"/>
</mask>
<g mask="url(#mask0_112_3093)">
</g>
<g clip-path="url(#clip0_112_3093)">
<path d="M76 16V22.25C76 27.7578 60.323 32.25 41 32.25C21.677 32.25 6 27.7578 6 22.25V16C6 10.4922 21.677 6 41 6C60.323 6 76 10.4922 76 16ZM76 30.0625V44.125C76 49.6328 60.323 54.125 41 54.125C21.677 54.125 6 49.6328 6 44.125V30.0625C13.5195 34.5938 27.2825 36.7032 41 36.7032C54.7175 36.7032 68.4803 34.5938 76 30.0625ZM76 51.9375V66C76 71.5078 60.323 76 41 76C21.677 76 6 71.5078 6 66V51.9375C13.5195 56.4688 27.2825 58.5782 41 58.5782C54.7175 58.5782 68.4803 56.4688 76 51.9375Z" fill="black"/>
</g>
<defs>
<clipPath id="clip0_112_3093">
<rect width="70" height="70" fill="white" transform="translate(6 6)"/>
</clipPath>
</defs>
</svg>
