<svg width="28" height="34" viewBox="0 0 28 34" fill="none" xmlns="http://www.w3.org/2000/svg">
<g clip-path="url(#clip0_182_381)">
<path d="M4.66667 0C2.09271 0 0 1.90586 0 4.25V29.75C0 32.0941 2.09271 34 4.66667 34H23.3333C25.9073 34 28 32.0941 28 29.75V10.625H18.6667C17.376 10.625 16.3333 9.67539 16.3333 8.5V0H4.66667ZM18.6667 0V8.5H28L18.6667 0ZM11.3531 16.6148L14 20.0613L16.6469 16.6148C17.201 15.891 18.2948 15.7184 19.0823 16.223C19.8698 16.7277 20.0667 17.7238 19.5125 18.441L16.1365 22.8438L19.5198 27.2398C20.074 27.9637 19.8844 28.9531 19.0896 29.4578C18.2948 29.9625 17.2083 29.7898 16.6542 29.066L14 25.6195L11.3531 29.066C10.799 29.7898 9.70521 29.9625 8.91771 29.4578C8.13021 28.9531 7.93333 27.957 8.4875 27.2398L11.8635 22.8438L8.48021 18.4477C7.92604 17.7238 8.11562 16.7344 8.91042 16.2297C9.70521 15.725 10.7917 15.8977 11.3458 16.6215L11.3531 16.6148Z" fill="#196618"/>
</g>
<defs>
<clipPath id="clip0_182_381">
<rect width="28" height="34" fill="white"/>
</clipPath>
</defs>
</svg>
