<svg width="37" height="36" viewBox="0 0 37 36" fill="none" xmlns="http://www.w3.org/2000/svg">
<path d="M14 25.65C13.7 25.35 13.55 24.9875 13.55 24.5625C13.55 24.1375 13.7 23.7833 14 23.5L18 19.5H2C1.575 19.5 1.21875 19.3554 0.93125 19.0663C0.64375 18.7771 0.5 18.4187 0.5 17.9913C0.5 17.5638 0.64375 17.2083 0.93125 16.925C1.21875 16.6417 1.575 16.5 2 16.5H17.9L13.85 12.45C13.5833 12.1833 13.45 11.8426 13.45 11.4277C13.45 11.0127 13.6036 10.6544 13.9107 10.3527C14.1923 10.0509 14.5442 9.9 14.9665 9.9C15.3888 9.9 15.75 10.05 16.05 10.35L22.7 17C22.8667 17.1667 22.9833 17.3356 23.05 17.5067C23.1167 17.6778 23.15 17.8611 23.15 18.0567C23.15 18.2522 23.1167 18.4333 23.05 18.6C22.9833 18.7667 22.8667 18.9333 22.7 19.1L16.1 25.7C15.8333 25.9667 15.4917 26.1 15.075 26.1C14.6583 26.1 14.3 25.95 14 25.65ZM20.45 36C20.025 36 19.6688 35.8554 19.3813 35.5662C19.0938 35.2771 18.95 34.9187 18.95 34.4913C18.95 34.0638 19.0938 33.7083 19.3813 33.425C19.6688 33.1417 20.025 33 20.45 33H33.5V3H20.45C20.025 3 19.6688 2.85542 19.3813 2.56625C19.0938 2.27705 18.95 1.91872 18.95 1.49125C18.95 1.06375 19.0938 0.708333 19.3813 0.425C19.6688 0.141667 20.025 0 20.45 0H33.5C34.3 0 35 0.3 35.6 0.9C36.2 1.5 36.5 2.2 36.5 3V33C36.5 33.8 36.2 34.5 35.6 35.1C35 35.7 34.3 36 33.5 36H20.45Z" fill="white"/>
</svg>
