<svg width="92" height="68" viewBox="0 0 92 68" fill="none" xmlns="http://www.w3.org/2000/svg">
<path d="M33.5003 67.3334C32.1809 67.3334 31.0003 66.9515 29.9587 66.1876C28.917 65.4237 28.1531 64.4515 27.667 63.2709L18.0837 38.1667H0.166992V29.8334H23.917L33.5003 55.2501L52.667 4.72925C53.1531 3.54869 53.917 2.57647 54.9587 1.81258C56.0003 1.04869 57.1809 0.666748 58.5003 0.666748C59.8198 0.666748 61.0003 1.04869 62.042 1.81258C63.0837 2.57647 63.8475 3.54869 64.3337 4.72925L73.917 29.8334H91.8337V38.1667H68.0837L58.5003 12.7501L39.3337 63.2709C38.8475 64.4515 38.0837 65.4237 37.042 66.1876C36.0003 66.9515 34.8198 67.3334 33.5003 67.3334Z" fill="#FF2000"/>
</svg>
