<svg width="70" height="70" viewBox="0 0 70 70" fill="none" xmlns="http://www.w3.org/2000/svg">
<mask id="mask0_149_142" style="mask-type:alpha" maskUnits="userSpaceOnUse" x="0" y="0" width="70" height="70">
<rect width="70" height="70" fill="#D9D9D9"/>
</mask>
<g mask="url(#mask0_149_142)">
<path d="M46.9587 38.4957L42.8753 34.2481L51.7712 27.3641L35.0003 14.3285L28.1462 19.6014L24.0628 15.3538L35.0003 6.8587L61.2503 27.3641L46.9587 38.4957ZM55.3441 46.8443L51.1149 42.5967L56.4378 38.4957L61.2503 42.1573L55.3441 46.8443ZM57.7503 65.7386L46.0837 54.0212L35.0003 62.6628L8.75033 42.1573L13.5628 38.4957L35.0003 55.1929L41.8545 49.8469L37.6982 45.7458L35.0003 47.8696L8.75033 27.3641L14.8024 22.6039L4.01074 11.9118L8.16699 7.73751L61.8337 61.6375L57.7503 65.7386Z" fill="#1C1B1F"/>
</g>
</svg>
