<svg width="36" height="34" viewBox="0 0 36 34" fill="none" xmlns="http://www.w3.org/2000/svg">
<g clip-path="url(#clip0_182_379)">
<path d="M12.96 15.555H15.12C15.5918 15.555 15.9872 15.4043 16.3063 15.1029C16.6254 14.8015 16.785 14.428 16.785 13.9825V11.9425C16.785 11.497 16.6254 11.1235 16.3063 10.8221C15.9872 10.5207 15.5918 10.37 15.12 10.37H12.15C11.922 10.37 11.7225 10.4408 11.5515 10.5825C11.3805 10.7242 11.295 10.9141 11.295 11.1524V18.3001C11.295 18.5384 11.3805 18.7283 11.5515 18.87C11.7225 19.0117 11.922 19.0825 12.15 19.0825C12.39 19.0825 12.585 19.0017 12.735 18.8403C12.885 18.6787 12.96 18.4903 12.96 18.275V15.555ZM12.96 13.9825V11.9425H15.12V13.9825H12.96ZM22.545 19.0825C22.995 19.0825 23.385 18.9318 23.715 18.6304C24.045 18.329 24.21 17.9555 24.21 17.51V11.9425C24.21 11.497 24.045 11.1235 23.715 10.8221C23.385 10.5207 22.995 10.37 22.545 10.37H19.62C19.392 10.37 19.1925 10.4408 19.0215 10.5825C18.8505 10.7242 18.765 10.9135 18.765 11.1505V18.2595C18.765 18.4965 18.8505 18.6929 19.0215 18.8488C19.1925 19.0046 19.392 19.0825 19.62 19.0825H22.545ZM20.43 17.51V11.9425H22.545V17.51H20.43ZM28.08 15.555H29.52C29.76 15.555 29.955 15.4742 30.105 15.3127C30.255 15.1512 30.33 14.9628 30.33 14.7475C30.33 14.5208 30.255 14.3367 30.105 14.195C29.955 14.0533 29.76 13.9825 29.52 13.9825H28.08V11.9425H29.52C29.76 11.9425 29.955 11.8617 30.105 11.7002C30.255 11.5387 30.33 11.3503 30.33 11.135C30.33 10.9083 30.255 10.7242 30.105 10.5825C29.955 10.4408 29.76 10.37 29.52 10.37H27.27C27.042 10.37 26.8425 10.4408 26.6715 10.5825C26.5005 10.7242 26.415 10.9141 26.415 11.1524V18.3001C26.415 18.5384 26.5005 18.7283 26.6715 18.87C26.8425 19.0117 27.042 19.0825 27.27 19.0825C27.51 19.0825 27.705 19.0017 27.855 18.8403C28.005 18.6787 28.08 18.4903 28.08 18.275V15.555ZM8.1 28.9C7.38 28.9 6.75 28.645 6.21 28.135C5.67 27.625 5.4 27.03 5.4 26.35V2.55C5.4 1.87 5.67 1.275 6.21 0.765C6.75 0.255 7.38 0 8.1 0H33.3C34.02 0 34.65 0.255 35.19 0.765C35.73 1.275 36 1.87 36 2.55V26.35C36 27.03 35.73 27.625 35.19 28.135C34.65 28.645 34.02 28.9 33.3 28.9H8.1ZM8.1 26.35H33.3V2.55H8.1V26.35ZM2.7 34C1.98 34 1.35 33.745 0.81 33.235C0.27 32.725 0 32.13 0 31.45V6.375C0 6.01375 0.130125 5.71094 0.390375 5.46656C0.650655 5.22219 0.973155 5.1 1.35788 5.1C1.74263 5.1 2.0625 5.22219 2.3175 5.46656C2.5725 5.71094 2.7 6.01375 2.7 6.375V31.45H29.25C29.6325 31.45 29.9531 31.5729 30.2119 31.8187C30.4706 32.0645 30.6 32.3691 30.6 32.7324C30.6 33.0958 30.4706 33.3979 30.2119 33.6388C29.9531 33.8796 29.6325 34 29.25 34H2.7Z" fill="#E6300B"/>
</g>
<defs>
<clipPath id="clip0_182_379">
<rect width="36" height="34" fill="white"/>
</clipPath>
</defs>
</svg>
