<svg width="52" height="52" viewBox="0 0 52 52" fill="none" xmlns="http://www.w3.org/2000/svg">
<path d="M25.9998 26.0002C22.5165 26.0002 19.5346 24.7599 17.054 22.2794C14.5734 19.7988 13.3332 16.8169 13.3332 13.3335C13.3332 9.8502 14.5734 6.86826 17.054 4.3877C19.5346 1.90715 22.5165 0.66687 25.9998 0.66687C29.4832 0.66687 32.4651 1.90715 34.9457 4.3877C37.4262 6.86826 38.6665 9.8502 38.6665 13.3335C38.6665 16.8169 37.4262 19.7988 34.9457 22.2794C32.4651 24.7599 29.4832 26.0002 25.9998 26.0002ZM0.666504 51.3335V42.4669C0.666504 40.6724 1.12831 39.0231 2.05192 37.519C2.97553 36.0148 4.20261 34.8669 5.73317 34.0752C9.00539 32.4391 12.3304 31.212 15.7082 30.394C19.0859 29.5759 22.5165 29.1669 25.9998 29.1669C29.4832 29.1669 32.9137 29.5759 36.2915 30.394C39.6693 31.212 42.9943 32.4391 46.2665 34.0752C47.7971 34.8669 49.0241 36.0148 49.9478 37.519C50.8714 39.0231 51.3332 40.6724 51.3332 42.4669V51.3335H0.666504ZM6.99984 45.0002H44.9998V42.4669C44.9998 41.8863 44.8547 41.3585 44.5644 40.8835C44.2741 40.4085 43.8915 40.0391 43.4165 39.7752C40.5665 38.3502 37.6901 37.2815 34.7873 36.569C31.8846 35.8565 28.9554 35.5002 25.9998 35.5002C23.0443 35.5002 20.1151 35.8565 17.2123 36.569C14.3096 37.2815 11.4332 38.3502 8.58317 39.7752C8.10817 40.0391 7.72553 40.4085 7.43525 40.8835C7.14498 41.3585 6.99984 41.8863 6.99984 42.4669V45.0002ZM25.9998 19.6669C27.7415 19.6669 29.2325 19.0467 30.4728 17.8065C31.713 16.5662 32.3332 15.0752 32.3332 13.3335C32.3332 11.5919 31.713 10.1009 30.4728 8.86062C29.2325 7.62034 27.7415 7.0002 25.9998 7.0002C24.2582 7.0002 22.7672 7.62034 21.5269 8.86062C20.2866 10.1009 19.6665 11.5919 19.6665 13.3335C19.6665 15.0752 20.2866 16.5662 21.5269 17.8065C22.7672 19.0467 24.2582 19.6669 25.9998 19.6669Z" fill="#1C1B1F"/>
</svg>
