<svg width="63" height="51" viewBox="0 0 63 51" fill="none" xmlns="http://www.w3.org/2000/svg">
<path d="M18.417 50.25L14.3337 46.1667L18.9274 41.3542C13.7746 40.7708 9.4847 38.5469 6.05762 34.6823C2.63053 30.8177 0.916992 26.2847 0.916992 21.0833C0.916992 15.3958 2.8979 10.5712 6.8597 6.60938C10.8215 2.64757 15.6462 0.666672 21.3337 0.666672H30.0837V6.5H21.3337C17.2989 6.5 13.8597 7.92188 11.016 10.7656C8.1722 13.6094 6.75033 17.0486 6.75033 21.0833C6.75033 24.5833 7.86838 27.6701 10.1045 30.3438C12.3406 33.0174 15.1844 34.6945 18.6357 35.375L14.3337 31.0729L18.417 26.9167L30.0837 38.5833L18.417 50.25ZM35.917 47.3333V26.9167H62.167V47.3333H35.917ZM35.917 21.0833V0.666672H62.167V21.0833H35.917ZM41.7503 15.25H56.3337V6.5H41.7503V15.25Z" fill="#1C1B1F"/>
</svg>
