<svg width="48" height="60" viewBox="0 0 48 60" fill="none" xmlns="http://www.w3.org/2000/svg">
<path d="M12.3337 29.9999V24.1666H35.667V29.9999H12.3337ZM12.3337 18.3333V12.4999H35.667V18.3333H12.3337ZM6.50033 35.8333H28.3753C29.785 35.8333 31.0975 36.1371 32.3128 36.7447C33.5281 37.3523 34.5489 38.2152 35.3753 39.3332L41.5003 47.3541V6.66658H6.50033V35.8333ZM6.50033 53.3332H38.7295L30.7816 42.9062C30.4899 42.5173 30.1375 42.2135 29.7243 41.9947C29.3111 41.776 28.8614 41.6666 28.3753 41.6666H6.50033V53.3332ZM41.5003 59.1666H6.50033C4.89616 59.1666 3.5229 58.5954 2.38053 57.453C1.23817 56.3107 0.666992 54.9374 0.666992 53.3332V6.66658C0.666992 5.06242 1.23817 3.68915 2.38053 2.54679C3.5229 1.40443 4.89616 0.833252 6.50033 0.833252H41.5003C43.1045 0.833252 44.4778 1.40443 45.6201 2.54679C46.7625 3.68915 47.3337 5.06242 47.3337 6.66658V53.3332C47.3337 54.9374 46.7625 56.3107 45.6201 57.453C44.4778 58.5954 43.1045 59.1666 41.5003 59.1666Z" fill="#1C1B1F"/>
</svg>
