<svg width="658" height="658" viewBox="0 0 658 658" fill="none" xmlns="http://www.w3.org/2000/svg">
<path d="M277.053 0C430.124 0 554.105 63.6659 554.105 142.27C554.105 220.875 430.124 284.541 277.053 284.541C123.981 284.541 0 220.875 0 142.27C0 63.6659 123.981 0 277.053 0ZM0 213.405C0 292.01 123.981 355.676 277.053 355.676C315.494 355.676 352.549 351.763 385.796 344.294C352.896 374.882 329 415.073 317.918 460.956L277.053 462.378C123.981 462.378 0 398.712 0 320.108V213.405ZM554.105 213.405V284.541H536.789L516.011 285.608C540.253 264.267 554.105 239.725 554.105 213.405ZM0 391.243C0 469.848 123.981 533.513 277.053 533.513L311.684 532.446C314.801 570.148 326.229 604.649 344.584 635.948L277.053 640.216C123.981 640.216 0 576.55 0 497.946V391.243ZM519.474 373.459C557.915 373.459 592.546 389.465 617.481 415.073L658 373.459V515.73H519.474L580.772 452.775C565.187 436.77 543.37 426.811 519.474 426.811C471.682 426.811 432.895 466.646 432.895 515.73C432.895 564.813 471.682 604.649 519.474 604.649C547.872 604.649 572.806 590.777 588.737 569.081H647.957C627.524 621.365 577.655 658 519.474 658C442.938 658 380.947 594.334 380.947 515.73C380.947 437.125 442.938 373.459 519.474 373.459Z" fill="black" fill-opacity="0.8"/>
</svg>
